<svg width="84" height="84" viewBox="0 0 84 84" fill="none" xmlns="http://www.w3.org/2000/svg">
<path d="M42 13.44C57.792 13.44 70.56 26.208 70.56 42C70.56 57.792 57.792 70.56 42 70.56C26.208 70.56 13.44 57.792 13.44 42C13.44 26.208 26.208 13.44 42 13.44ZM42 67.2C55.944 67.2 67.2 55.944 67.2 42C67.2 28.056 55.944 16.8 42 16.8C28.056 16.8 16.8 28.056 16.8 42C16.8 55.944 28.056 67.2 42 67.2Z" fill="black"/>
<path d="M28.056 39.144L42 53.088L55.944 39.144L58.296 41.496L42 57.792L25.704 41.496L28.056 39.144Z" fill="black"/>
<path d="M43.68 55.44H40.32V26.88H43.68V55.44Z" fill="black"/>
</svg>
