<svg width="267" height="84" viewBox="0 0 267 84" fill="none" xmlns="http://www.w3.org/2000/svg">
<path d="M25.2324 15.1106C25.2324 15.1106 24.8195 15.1106 24.0262 15.1106C23.0373 12.22 21.1574 9.24258 17.7779 9.18824C16.9955 9.18824 16.6043 9.18824 15.8219 9.18824C15.8219 15.0019 15.8219 20.8156 15.8219 26.6292C15.7784 28.8678 16.8868 30.5847 19.3209 30.4978C19.3209 30.8998 19.3209 31.4106 19.3209 31.4106C14.8439 31.4106 10.3559 31.4106 5.87886 31.4106C5.87886 31.4106 5.87886 30.9107 5.87886 30.4978C8.30213 30.5738 9.454 28.8786 9.4214 26.6292C9.4214 20.8156 9.4214 15.0019 9.4214 9.18824C8.639 9.18824 8.2478 9.18824 7.4654 9.18824C4.075 9.07958 2.1842 12.3396 1.21706 15.1106C0.423798 15.1106 0.0108643 15.1106 0.0108643 15.1106C0.206464 12.6873 0.412931 10.264 0.608531 7.84077C8.61726 7.84077 16.626 7.84077 24.6347 7.84077C24.8303 10.264 25.0368 12.6873 25.2324 15.1106Z" fill="black"/>
<path d="M52.2795 31.3671C52.2795 32.0734 52.2795 32.2799 52.2795 32.2799C48.2263 31.4975 44.3034 31.4106 40.1849 31.4106C40.1849 31.4106 40.1849 30.9107 40.1849 30.4978C42.7169 30.6282 43.1189 28.6722 42.8255 26.6292C42.5756 25.1948 42.3039 23.7278 42.0757 22.326C41.7932 20.5765 41.0325 18.4684 38.8701 18.5553C36.7402 18.6423 35.6427 20.5874 35.6644 22.5651C35.6644 23.9234 35.6644 25.2818 35.6644 26.6401C35.6209 28.7591 36.2512 30.6173 38.7505 30.5087C38.7505 31.215 38.7505 31.4214 38.7505 31.4214C34.6212 31.4214 30.4919 31.4214 26.3625 31.4214C26.3625 31.4214 26.3625 30.9216 26.3625 30.5087C28.8401 30.6065 29.6443 28.8026 29.6008 26.6401C29.6008 22.8585 29.6008 19.0769 29.6008 15.2953C29.6443 13.1329 28.8401 11.329 26.3625 11.4268C26.3625 11.0247 26.3625 10.8508 26.3625 10.4814C29.1553 10.4488 32.4479 9.65552 34.6429 7.85165C35.2841 7.85165 35.6644 7.85165 35.6644 7.85165C35.6644 11.3833 35.6644 14.915 35.6644 18.4575C37.1857 16.545 39.3699 15.9038 41.6519 15.8278C45.477 15.7082 47.6069 18.4141 48.1719 22.0979C48.4219 23.7061 48.6609 25.3144 48.8891 26.9335C49.1608 29.1177 49.8237 30.9542 52.2795 31.3671Z" fill="black"/>
<path d="M70.3943 33.171C68.4709 36.3115 64.8631 36.2354 61.8096 35.2791C57.4521 33.9208 52.4751 30.237 51.9753 25.2166C51.3993 19.3486 56.9739 17.7621 61.6575 19.3486C65.8629 20.7721 70.1226 24.2495 69.9053 29.1069C66.0259 28.3353 62.1682 27.5095 58.2671 26.8792C59.1799 31.0955 65.7868 34.7793 69.7531 32.4864C69.7531 32.4864 70.3943 33.1384 70.3943 33.171ZM58.0389 25.4883C60.1035 25.8143 62.1573 26.1837 64.2111 26.5858C64.4067 24.0321 63.7439 21.0873 60.9729 20.3266C58.0171 19.5116 57.7672 23.6192 58.0389 25.4883Z" fill="black"/>
<path d="M100.028 33.573C99.0714 38.6478 93.5185 42.4837 88.4981 42.1794C84.6948 41.9404 79.2723 39.6475 78.3704 35.4639C77.7619 32.6603 80.0873 30.9216 82.7388 31.6497C84.3797 32.0952 86.6508 33.4426 86.7269 35.4204C84.9991 35.1922 83.3473 36.105 83.8255 38.0827C84.3145 40.0931 86.8464 40.8754 88.6503 40.9732C91.0844 41.1036 93.9206 39.6584 94.5291 37.159C95.3007 34.0077 90.3781 33.0297 88.3895 32.1169C84.8469 30.4869 79.8591 27.5203 80.1743 22.9454C80.522 17.9794 86.3791 18.0337 90.1499 18.0446C91.6169 18.0446 95.7788 19.1095 96.1809 16.8601C96.5177 16.7623 96.9307 16.6319 96.9307 16.6319C97.1263 19.0878 97.3327 21.5545 97.5283 24.0104C97.0611 24.1625 96.8329 24.2386 96.3656 24.3799C95.5071 21.0655 93.6055 19.3051 90.1499 19.2617C88.4003 19.2399 85.4663 19.7289 85.4011 21.9566C85.3142 25.2274 90.4976 26.7379 92.9752 27.4877C96.3004 28.4766 100.908 28.8895 100.028 33.573Z" fill="black"/>
<path d="M124.054 25.6947C123.195 27.6616 121.641 29.0525 119.718 29.9327C118.468 30.4978 115.578 31.6714 115.013 29.5307C113.633 32.0191 111.568 34.0186 109.058 35.366C106.07 36.9743 102.418 36.9526 102.538 32.6602C102.538 31.6496 102.538 31.1498 102.538 30.1392C102.625 27.7485 102.179 26.7488 99.756 27.4551C99.756 27.053 99.756 26.9118 99.756 26.5423C102.831 25.2709 105.581 22.8585 107.591 20.2505C108.232 19.9137 108.612 19.718 108.612 19.718C108.612 22.8476 108.612 25.9773 108.612 29.1068C108.482 31.1607 109.862 32.3016 111.818 31.1824C113.796 30.0414 114.882 27.8789 114.872 25.5752C114.872 24.8797 114.872 24.5211 114.872 23.8257C114.958 21.4024 114.48 20.4244 112.09 21.4132C112.09 21.0112 112.09 20.8699 112.09 20.5004C115.056 18.8922 117.816 16.545 119.957 13.9479C120.598 13.6653 120.979 13.5023 120.979 13.5023C120.979 17.0883 120.979 20.6852 120.979 24.2712C120.935 25.2166 120.946 26.8466 121.924 26.8792C122.467 26.89 123.054 26.3032 123.434 25.5969C123.674 25.6295 123.804 25.6512 124.054 25.6947Z" fill="black"/>
<path d="M150.721 25.2492C150.721 25.9555 150.721 26.162 150.721 26.162C146.689 26.162 142.658 26.162 138.626 26.162C138.626 26.162 138.626 25.6621 138.626 25.2492C141.093 25.5317 141.56 23.2715 141.267 21.3807C141.017 19.9463 140.745 18.4792 140.517 17.0774C140.234 15.3279 139.485 13.1872 137.311 13.2741C135.17 13.361 134.084 15.3388 134.106 17.3165C134.106 18.6749 134.106 20.0332 134.106 21.3915C134.062 23.5105 134.692 25.3687 137.192 25.26C137.192 25.9664 137.192 26.1729 137.192 26.1729C132.856 26.1729 128.976 26.3793 124.804 27.6507C124.804 27.6507 124.804 27.1508 124.804 26.7379C127.173 26.0424 128.085 24.3255 128.042 21.9783C128.042 20.8482 128.042 19.7072 128.042 18.577C128.085 16.5015 127.249 14.6433 124.804 15.5887C124.804 15.1867 124.804 15.0454 124.804 14.6759C127.618 13.7196 130.748 12.4374 133.084 10.5792C133.725 10.5792 134.106 10.5792 134.106 10.5792C134.106 11.6333 134.106 12.1548 134.106 13.2089C135.627 11.2964 137.8 10.6553 140.093 10.5792C143.831 10.4597 146.048 12.9916 146.613 16.6428C146.863 18.2184 147.102 19.805 147.33 21.3915C147.58 23.7061 148.287 24.9558 150.721 25.2492Z" fill="black"/>
<path d="M161.87 3.50498C159.946 3.45064 159.62 5.7109 160.142 7.06923C160.631 8.3515 160.946 9.4925 161.164 10.8726C162.935 10.8726 164.706 10.8726 166.477 10.8726C166.477 11.4159 166.477 11.6767 166.477 12.22C164.717 12.22 162.967 12.22 161.207 12.22C161.207 15.2627 161.207 18.3054 161.207 21.3372C161.174 23.6735 162.652 25.2709 165.054 25.2057C165.054 25.6078 165.054 26.1511 165.054 26.1511C160.664 26.1511 156.263 26.1511 151.873 26.1511C151.873 26.1511 151.873 25.6078 151.873 25.2057C154.35 25.3035 155.154 23.4996 155.111 21.3372C155.111 18.2945 155.111 15.2518 155.111 12.22C154.068 12.22 153.024 12.22 151.981 12.22C151.981 11.6767 151.981 11.4159 151.981 10.8726C153.024 10.8726 154.068 10.8726 155.111 10.8726C155.111 10.8074 155.111 10.7748 155.111 10.7096C155.089 6.1021 156.98 2.2553 162.12 2.29877C164.228 2.30963 168.488 2.96163 168.107 5.83043C167.836 7.87337 165.065 7.85164 163.511 7.37351C164.163 5.90651 163.902 3.55931 161.87 3.50498Z" fill="black"/>
<path d="M178.702 25.2275C178.702 25.6295 178.702 26.1403 178.702 26.1403C174.508 26.1946 170.313 26.162 166.119 26.162C166.119 26.162 166.119 25.6621 166.119 25.2492C168.596 25.347 169.4 23.5431 169.357 21.3807C169.357 17.5991 169.357 13.8175 169.357 10.0359C169.4 7.87339 168.596 6.06953 166.119 6.16733C166.119 5.76526 166.119 5.59139 166.119 5.22192C168.933 5.18932 172.215 4.38519 174.443 2.59219C175.084 2.59219 175.464 2.59219 175.464 2.59219C175.464 8.85139 175.464 15.1106 175.464 21.3698C175.421 23.5214 176.203 25.4013 178.702 25.2275Z" fill="black"/>
<path d="M198.251 13.8175C198.197 19.1965 193.416 23.554 188.493 24.8797C183.831 26.1294 178.702 23.8583 178.702 18.501C178.702 13.1872 183.973 10.188 188.493 8.99266C192.612 7.89513 198.306 8.30805 198.251 13.8175ZM192.079 15.3279C191.612 13.0785 190.069 9.45993 187.178 10.6335C184.266 11.818 184.396 15.7409 184.918 18.3271C185.364 20.5005 186.874 24.5103 189.775 23.2171C192.59 21.9566 192.612 17.9251 192.079 15.3279Z" fill="black"/>
<path d="M229.167 0.418854C229.167 0.418854 229.167 1.05999 229.167 1.33166C227.559 1.28819 226.516 2.10319 225.885 3.51585C224.027 7.57999 222.147 11.6332 220.311 15.7082C219.289 15.7626 218.779 15.806 217.746 15.9364C216.366 12.9481 214.954 9.97065 213.53 7.00405C212.041 10.5901 210.574 14.1978 209.129 17.7947C208.108 18.0989 207.597 18.2511 206.564 18.5771C204.576 15.2084 202.555 11.8397 200.533 8.49278C199.838 7.21051 198.871 6.85192 197.48 7.38438C197.48 6.91712 197.48 6.47158 197.48 6.47158C201.131 5.17845 204.771 3.87445 208.477 2.73345C208.477 2.73345 208.477 3.37458 208.477 3.64625C207.13 4.00485 206.13 4.92851 206.934 6.30858C208.01 8.28631 209.075 10.2641 210.14 12.2527C211.052 10.0467 211.965 7.82992 212.889 5.62399C212.704 5.27626 212.617 5.10239 212.432 4.75466C211.813 3.47239 210.998 2.87471 209.531 3.33111C209.531 2.86385 209.531 2.41832 209.531 2.41832C213.171 1.41859 216.79 0.679648 220.561 0.440582C220.561 0.440582 220.561 1.08172 220.561 1.35338C219.094 1.36425 218.105 2.19012 218.757 3.66799C219.637 5.89566 220.496 8.12332 221.354 10.351C222.408 8.06899 223.462 5.78699 224.516 3.51585C225.483 1.76632 223.995 1.23386 222.517 1.33166C222.517 0.86439 222.517 0.418854 222.517 0.418854C224.755 0.418854 226.961 0.418854 229.167 0.418854Z" fill="black"/>
<path d="M246.912 10.8508C245.239 14.2521 241.892 15.8712 238.328 15.969C234.014 16.0886 228.939 13.5349 228.493 8.66665C227.983 3.10291 233.188 0.0602457 238.176 0.081979C242.348 0.103712 246.652 2.17924 246.423 6.94971C242.544 7.53651 238.665 8.11244 234.785 8.69924C235.959 13.6001 243.305 13.1328 246.271 10.3836C246.271 10.3727 246.912 10.8182 246.912 10.8508ZM234.557 7.38437C236.611 7.06924 238.675 6.75411 240.729 6.43898C240.914 4.14611 240.36 1.08171 237.491 1.28818C234.633 1.49464 234.231 5.17844 234.557 7.38437Z" fill="black"/>
<path d="M266.114 4.62425C265.386 6.25425 263.354 6.97145 261.669 6.47159C262.071 5.31972 261.952 3.80926 260.572 3.40719C259.105 2.98339 257.562 3.70058 257.366 5.28712C257.366 7.14532 257.366 9.01439 257.366 10.8726C257.323 12.9916 257.953 14.8498 260.452 14.7411C260.452 15.4475 260.452 15.6539 260.452 15.6539C256.312 15.6539 252.172 15.6539 248.021 15.6539C248.021 15.6539 248.021 15.1541 248.021 14.7411C250.52 14.8389 251.303 13.0459 251.259 10.8726C251.259 9.74245 251.259 8.60146 251.259 7.47133C251.303 5.29799 250.52 3.49412 248.021 3.60278C248.021 3.20072 248.021 3.05946 248.021 2.69C250.835 2.65739 254.106 1.83152 256.345 0.0602538C256.986 0.0602538 257.366 0.0602538 257.366 0.0602538C257.366 1.27732 257.366 1.87499 257.366 3.09206C258.594 0.973056 260.691 -0.298346 263.169 0.0602538C265.353 0.386254 267.092 2.45092 266.114 4.62425Z" fill="black"/>
<path d="M27.9056 60.0225C27.9056 68.9006 19.071 71.6716 11.6382 71.802C7.7588 71.802 3.8794 71.802 0 71.802C0 71.802 0 71.3021 0 70.8892C2.42327 70.9653 3.586 69.2701 3.54253 67.0207C3.54253 62.3697 3.54253 57.7079 3.54253 53.057C3.586 50.8076 2.43413 49.1124 0 49.1884C0 48.7864 0 48.243 0 48.243C3.8794 48.243 7.7588 48.243 11.6382 48.243C19.0601 48.3734 27.9056 51.1553 27.9056 60.0225ZM21.2443 60.0225C21.2443 53.8285 17.93 49.5145 11.4861 49.5905C10.8558 49.5905 10.5407 49.5905 9.89953 49.5905C9.89953 56.5561 9.89953 63.5216 9.89953 70.498C10.5298 70.498 10.8449 70.498 11.4861 70.498C17.9409 70.5632 21.2443 66.2057 21.2443 60.0225Z" fill="black"/>
<path d="M47.9003 67.1728C46.2485 70.4762 42.7169 72.0084 39.3156 72.1062C35.0124 72.2366 29.9268 69.6721 29.4813 64.8039C28.9705 59.2401 34.1757 56.1975 39.1635 56.2192C43.4232 56.2409 47.6395 58.4034 47.4113 63.2282C43.5101 63.5325 39.6416 64.2605 35.7731 64.8364C36.9467 69.7373 44.2056 69.2157 47.2591 66.6403C47.27 66.6403 47.9003 67.1402 47.9003 67.1728ZM35.5557 63.5216C37.6095 63.2064 39.6742 62.8913 41.728 62.5762C41.9127 60.2833 41.3585 57.2189 38.4897 57.4254C35.6318 57.6319 35.2297 61.3156 35.5557 63.5216Z" fill="black"/>
<path d="M71.3723 71.0739C71.4266 76.8441 66.2649 77.5287 61.9183 75.714C60.2448 74.9316 58.7235 73.7362 57.5825 72.2801C57.5825 73.921 57.5825 75.5618 57.5825 77.1918C57.5716 79.6586 59.1038 81.5385 61.4293 82.2774C61.4293 82.6795 61.4293 83.2228 61.4293 83.2228C57.1152 81.7993 52.8011 80.5931 48.2806 80.0063C48.2806 80.0063 48.2806 79.463 48.2806 79.0609C50.7365 79.463 51.5732 77.8547 51.5189 75.6922C51.5189 71.9106 51.5189 68.129 51.5189 64.3474C51.5623 62.1524 50.7473 60.1855 48.2806 59.979C48.2806 59.577 48.2806 59.4357 48.2806 59.0662C50.9429 59.3379 54.1051 59.3053 56.561 58.1426C57.2021 58.3273 57.5825 58.436 57.5825 58.436C57.5825 59.1315 57.5825 59.49 57.5825 60.1855C58.7778 59.49 60.2448 59.4031 61.5705 59.7074C66.7105 60.8484 71.3179 65.684 71.3723 71.0739ZM65.1565 68.455C64.711 65.7927 63.4613 61.3048 60.2991 60.7288C57.05 60.142 57.702 65.4232 58.0063 67.2054C58.4409 69.8242 59.7993 74.3013 62.9071 74.8555C66.1454 75.464 65.4499 70.2263 65.1565 68.455Z" fill="black"/>
<path d="M93.4425 80.8104C92.4427 81.984 90.9975 82.5382 89.487 82.5926C87.7049 82.6578 85.2055 82.0166 84.5209 80.1041C83.2387 81.7341 81.0653 81.7884 79.2071 81.3429C76.5013 80.6909 73.2848 79.0392 72.6111 76.0726C71.8069 72.4866 75.306 71.9432 77.9249 72.1062C79.0007 72.1714 83.8255 73.4863 83.2387 70.9435C82.8909 69.4439 82.0325 67.314 80.3373 66.9011C78.6855 66.4882 76.5774 67.7922 78.3378 69.4222C77.4576 70.6284 75.8711 70.2263 74.8387 69.5417C74.0129 68.9984 73.4369 67.6509 73.9694 66.7164C75.1213 64.6517 78.4139 65.3037 80.2938 65.7167C84.5209 66.6295 88.7372 67.9117 89.487 72.7365C89.7261 74.3013 89.976 75.877 90.2042 77.4527C90.4324 78.6154 90.6606 79.9629 91.0301 80.3432C91.4213 80.7344 92.2689 80.6692 93.1382 80.1367C93.2903 80.4627 93.3229 80.4953 93.4425 80.8104ZM84.0645 76.7463C83.9341 75.6488 83.8363 74.4969 83.6516 73.3885C83.3473 73.8884 82.8909 74.0623 81.011 74.1057C79.4462 74.1383 78.3052 75.3771 78.5225 76.931C78.7399 78.4524 80.3373 79.865 81.8695 79.8216C83.5212 79.7781 84.2275 78.2242 84.0645 76.7463Z" fill="black"/>
<path d="M112.644 62.511C111.905 64.3909 110.221 66.2165 108.199 66.7164C108.482 65.8688 108.688 63.815 107.102 64.2171C105.526 64.63 104.081 66.0101 103.896 67.6944C103.896 69.5526 103.896 71.4217 103.896 73.2799C103.755 75.7357 104.646 76.5399 106.982 75.6162C106.982 76.3225 106.982 76.529 106.982 76.529C102.962 78.5719 98.9301 80.4192 94.5509 81.5711C94.5509 81.5711 94.5509 81.0713 94.5509 80.6583C96.9959 80.1259 97.8326 78.1155 97.7891 75.8335C97.7891 74.7034 97.7891 73.5624 97.7891 72.4322C97.8761 69.9329 96.8981 69.1614 94.5509 69.5091C94.5509 69.107 94.5509 68.9658 94.5509 68.5963C97.7783 67.7596 100.799 65.4993 102.875 62.9457C103.516 62.6523 103.896 62.4675 103.896 62.4675C103.896 63.6846 103.896 64.2823 103.896 65.4993C105.081 62.9457 107.069 60.3159 109.699 59.5118C111.775 58.8924 113.676 59.8813 112.644 62.511Z" fill="black"/>
<path d="M127.336 63.9019C126.347 66.3578 124.543 68.2921 122.098 69.3135C119.349 70.4654 116.643 69.7699 116.632 66.4012C116.632 63.4455 116.632 60.5006 116.632 57.5449C115.643 58.0339 114.665 58.5338 113.698 59.0554C113.698 59.0554 113.698 58.1426 113.698 57.7405C117.24 55.7193 120.74 52.4376 121.565 48.2865C122.207 48.0257 122.728 47.8192 122.728 47.8192C122.728 49.71 122.728 51.6117 122.728 53.5025C124.032 53.0026 125.369 52.5571 126.716 52.1985C126.716 52.7201 126.716 52.9809 126.716 53.5134C125.358 53.872 124.032 54.3175 122.728 54.8174C122.728 57.86 122.728 60.9027 122.728 63.9345C122.728 65.5211 123.391 65.7167 124.271 65.5645C125.271 65.3798 126.108 64.6408 126.608 63.7389C126.901 63.8041 127.042 63.8367 127.336 63.9019Z" fill="black"/>
<path d="M166.054 65.6406C166.054 66.3469 166.054 66.5534 166.054 66.5534C162.011 66.5534 157.969 66.5534 153.926 66.5534C153.926 66.5534 153.926 66.0535 153.926 65.6406C156.447 65.771 156.904 63.8258 156.567 61.772C156.317 60.3376 156.067 58.8924 155.85 57.4688C155.6 55.7736 154.904 53.6329 152.796 53.6981C150.732 53.7633 149.862 55.904 149.895 57.7079C149.927 59.0336 149.895 60.4246 149.895 61.7829C149.851 63.9562 150.634 65.7601 153.133 65.6514C153.133 66.0535 153.133 66.5642 153.133 66.5642C149.091 66.5642 145.048 66.5642 141.006 66.5642C141.006 66.5642 141.006 66.3578 141.006 65.6514C143.56 65.7927 143.842 63.8041 143.788 61.7829C143.788 60.3485 143.777 58.8924 143.788 57.4797C143.809 55.5672 142.723 53.6438 140.582 53.709C138.441 53.7742 137.355 55.741 137.376 57.7188C137.376 59.0771 137.376 60.4354 137.376 61.7938C137.333 63.815 137.615 65.8036 140.158 65.6623C140.158 66.3686 140.158 66.5751 140.158 66.5751C136.105 66.5751 132.073 66.3904 128.064 67.151C128.064 67.151 128.064 66.6512 128.064 66.2382C130.476 65.8036 131.345 64.1627 131.302 61.8698C131.302 60.7397 131.302 59.5987 131.302 58.4686C131.345 56.4148 130.552 54.4262 128.064 55.089C128.064 54.687 128.064 54.5457 128.064 54.1762C130.802 53.5568 134.138 52.7853 136.344 50.9706C136.985 50.9706 137.366 50.9706 137.366 50.9706C137.366 52.0246 137.366 52.5462 137.366 53.6003C138.887 51.6878 141.071 51.0358 143.353 50.9706C145.689 50.9054 148.265 51.7747 149.308 54.1328C150.71 51.8834 152.905 51.0575 155.372 50.9706C159.045 50.8402 161.348 53.4264 161.892 57.0342C162.131 58.6098 162.391 60.1964 162.641 61.7829C162.87 64.1084 163.63 65.3472 166.054 65.6406Z" fill="black"/>
<path d="M184.168 61.12C182.527 64.7278 179.398 66.7598 175.584 66.8576C171.27 66.9772 166.195 64.4235 165.749 59.5552C165.239 53.9915 170.444 50.9488 175.431 50.9706C179.398 50.9923 183.918 52.5788 183.679 57.3058C179.854 58.4577 175.986 59.001 172.041 59.5878C173.258 64.6734 180.778 63.9671 183.527 60.7614C183.527 60.7506 184.168 61.0874 184.168 61.12ZM171.813 58.273C173.867 57.9578 175.931 57.6427 177.985 57.3276C178.17 55.0347 177.616 51.9812 174.747 52.1768C171.889 52.3832 171.487 56.067 171.813 58.273Z" fill="black"/>
<path d="M211.205 56.7082C211.205 57.4145 211.205 57.621 211.205 57.621C207.108 58.7294 203.109 60.1312 199.11 61.5547C199.11 61.5547 199.11 61.0548 199.11 60.6419C201.435 59.8921 202.098 58.0774 201.751 55.8389C201.501 54.4914 201.218 53.1222 201.001 51.7964C200.729 50.1556 199.871 48.243 197.795 49.1232C195.806 49.9708 194.579 52.0681 194.589 54.2632C194.589 55.6215 194.589 56.9798 194.589 58.3382C194.459 60.718 195.274 61.7068 197.676 61.1418C197.676 61.8481 197.676 62.0546 197.676 62.0546C193.601 63.4781 189.515 64.8039 185.288 65.7167C185.288 65.7167 185.288 65.2168 185.288 64.8039C187.722 64.3692 188.569 62.4241 188.526 60.1747C188.526 59.0445 188.526 57.9035 188.526 56.7734C188.613 54.3175 187.646 53.4156 185.288 53.6655C185.288 53.2634 185.288 53.1222 185.288 52.7527C188.374 52.0681 191.46 50.199 193.568 47.8627C194.209 47.6562 194.589 47.5258 194.589 47.5258C194.589 48.5799 194.589 49.1015 194.589 50.1556C195.98 47.9388 198.154 46.3305 200.577 45.4394C204.054 44.168 206.51 45.635 207.097 49.2862C207.336 50.7858 207.586 52.2963 207.814 53.8068C208.064 56.0888 208.803 57.0668 211.205 56.7082Z" fill="black"/>
<path d="M223.712 52.6549C222.701 54.85 220.887 56.2735 218.474 56.5452C215.453 56.8821 213.041 55.2738 213.008 52.0899C213.008 49.1341 213.008 46.1893 213.008 43.2335C211.835 43.5052 211.248 43.6573 210.074 43.9833C210.074 43.9833 210.074 43.0705 210.074 42.6684C213.552 41.5383 217.138 39.1694 217.942 35.3661C218.583 35.29 219.105 35.2465 219.105 35.2465C219.105 37.1373 219.105 39.039 219.105 40.9298C220.43 40.8102 221.767 40.7885 223.093 40.7994C223.093 41.321 223.093 41.5818 223.093 42.1142C221.756 42.1034 220.43 42.1251 219.105 42.2447C219.105 45.2873 219.105 48.33 219.105 51.3618C219.105 52.9483 219.767 53.3395 220.648 53.4482C221.604 53.5677 222.419 53.1548 222.984 52.3072C223.277 52.4485 223.419 52.5245 223.712 52.6549Z" fill="black"/>
</svg>
